M48
; DRILL file {KiCad 9.0.4} date 2025-10-13T04:59:47+0400
; FORMAT={-:-/ absolute / inch / decimal}
; #@! TF.CreationDate,2025-10-13T04:59:47+04:00
; #@! TF.GenerationSoftware,Kicad,Pcbnew,9.0.4
; #@! TF.FileFunction,Plated,1,2,PTH
FMAT,2
INCH
; #@! TA.AperFunction,Plated,PTH,ViaDrill
T1C0.0118
; #@! TA.AperFunction,Plated,PTH,ComponentDrill
T2C0.0394
%
G90
G05
T1
X4.3622Y-3.0787
X4.4961Y-3.1102
T2
X4.4465Y-2.8921
X4.4465Y-2.9921
X4.4476Y-2.5287
X4.4476Y-2.6287
X4.4543Y-4.3366
X4.4543Y-4.4366
X4.5465Y-2.8921
X4.5465Y-2.9921
X4.5476Y-2.5287
X4.5476Y-2.6287
X4.5543Y-4.3366
X4.5543Y-4.4366
X4.6465Y-2.8921
X4.6465Y-2.9921
X4.6476Y-2.5287
X4.6476Y-2.6287
X4.6543Y-4.3366
X4.6543Y-4.4366
X4.7465Y-2.8921
X4.7465Y-2.9921
X4.7476Y-2.5287
X4.7476Y-2.6287
X4.7543Y-4.3366
X4.7543Y-4.4366
X4.8465Y-2.8921
X4.8465Y-2.9921
X4.8476Y-2.5287
X4.8476Y-2.6287
X4.8543Y-4.3366
X4.8543Y-4.4366
X4.9465Y-2.8921
X4.9465Y-2.9921
X4.9476Y-2.5287
X4.9476Y-2.6287
X4.9543Y-4.3366
X4.9543Y-4.4366
X5.0465Y-2.8921
X5.0465Y-2.9921
X5.0476Y-2.5287
X5.0476Y-2.6287
X5.0543Y-4.3366
X5.0543Y-4.4366
X5.1465Y-2.8921
X5.1465Y-2.9921
X5.1476Y-2.5287
X5.1476Y-2.6287
X5.1543Y-4.3366
X5.1543Y-4.4366
X5.2465Y-2.8921
X5.2465Y-2.9921
X5.2476Y-2.5287
X5.2476Y-2.6287
X5.2543Y-4.3366
X5.2543Y-4.4366
X5.3465Y-2.8921
X5.3465Y-2.9921
X5.3476Y-2.5287
X5.3476Y-2.6287
X5.3543Y-4.3366
X5.3543Y-4.4366
X5.4465Y-2.8921
X5.4465Y-2.9921
X5.4476Y-2.5287
X5.4476Y-2.6287
X5.4543Y-4.3366
X5.4543Y-4.4366
X5.5465Y-2.8921
X5.5465Y-2.9921
X5.5476Y-2.5287
X5.5476Y-2.6287
X5.5543Y-4.3366
X5.5543Y-4.4366
X5.6465Y-2.8921
X5.6465Y-2.9921
X5.6476Y-2.5287
X5.6476Y-2.6287
X5.6543Y-4.3366
X5.6543Y-4.4366
X5.7465Y-2.8921
X5.7465Y-2.9921
X5.7476Y-2.5287
X5.7476Y-2.6287
X5.7543Y-4.3366
X5.7543Y-4.4366
X5.8465Y-2.8921
X5.8465Y-2.9921
X5.8476Y-2.5287
X5.8476Y-2.6287
X5.8543Y-4.3366
X5.8543Y-4.4366
X5.9465Y-2.8921
X5.9465Y-2.9921
X5.9476Y-2.5287
X5.9476Y-2.6287
X5.9543Y-4.3366
X5.9543Y-4.4366
X6.0465Y-2.8921
X6.0465Y-2.9921
X6.0476Y-2.5287
X6.0476Y-2.6287
X6.0543Y-4.3366
X6.0543Y-4.4366
X6.1465Y-2.8921
X6.1465Y-2.9921
X6.1476Y-2.5287
X6.1476Y-2.6287
X6.1543Y-4.3366
X6.1543Y-4.4366
X6.2465Y-2.8921
X6.2465Y-2.9921
X6.2476Y-2.5287
X6.2476Y-2.6287
X6.2543Y-4.3366
X6.2543Y-4.4366
X6.3465Y-2.8921
X6.3465Y-2.9921
X6.3476Y-2.5287
X6.3476Y-2.6287
X6.3543Y-4.3366
X6.3543Y-4.4366
M30
