%TF.GenerationSoftware,KiCad,Pcbnew,9.0.4*%
%TF.CreationDate,2025-10-13T04:59:47+04:00*%
%TF.ProjectId,RPi_hat_breakout,5250695f-6861-4745-9f62-7265616b6f75,rev?*%
%TF.SameCoordinates,Original*%
%TF.FileFunction,Soldermask,Bot*%
%TF.FilePolarity,Negative*%
%FSLAX46Y46*%
G04 Gerber Fmt 4.6, Leading zero omitted, Abs format (unit mm)*
G04 Created by KiCad (PCBNEW 9.0.4) date 2025-10-13 04:59:47*
%MOMM*%
%LPD*%
G01*
G04 APERTURE LIST*
%ADD10R,1.700000X1.700000*%
%ADD11C,1.700000*%
%ADD12C,2.700000*%
%ADD13O,1.700000X1.700000*%
G04 APERTURE END LIST*
D10*
%TO.C,J3*%
X112940000Y-73460000D03*
D11*
X112940000Y-76000000D03*
X115480000Y-73460000D03*
X115480000Y-76000000D03*
X118020000Y-73460000D03*
X118020000Y-76000000D03*
X120560000Y-73460000D03*
X120560000Y-76000000D03*
X123100000Y-73460000D03*
X123100000Y-76000000D03*
X125640000Y-73460000D03*
X125640000Y-76000000D03*
X128180000Y-73460000D03*
X128180000Y-76000000D03*
X130720000Y-73460000D03*
X130720000Y-76000000D03*
X133260000Y-73460000D03*
X133260000Y-76000000D03*
X135800000Y-73460000D03*
X135800000Y-76000000D03*
X138340000Y-73460000D03*
X138340000Y-76000000D03*
X140880000Y-73460000D03*
X140880000Y-76000000D03*
X143420000Y-73460000D03*
X143420000Y-76000000D03*
X145960000Y-73460000D03*
X145960000Y-76000000D03*
X148500000Y-73460000D03*
X148500000Y-76000000D03*
X151040000Y-73460000D03*
X151040000Y-76000000D03*
X153580000Y-73460000D03*
X153580000Y-76000000D03*
X156120000Y-73460000D03*
X156120000Y-76000000D03*
X158660000Y-73460000D03*
X158660000Y-76000000D03*
X161200000Y-73460000D03*
X161200000Y-76000000D03*
%TD*%
D10*
%TO.C,J2*%
X113140000Y-110150000D03*
D11*
X113140000Y-112690000D03*
X115680000Y-110150000D03*
X115680000Y-112690000D03*
X118220000Y-110150000D03*
X118220000Y-112690000D03*
X120760000Y-110150000D03*
X120760000Y-112690000D03*
X123300000Y-110150000D03*
X123300000Y-112690000D03*
X125840000Y-110150000D03*
X125840000Y-112690000D03*
X128380000Y-110150000D03*
X128380000Y-112690000D03*
X130920000Y-110150000D03*
X130920000Y-112690000D03*
X133460000Y-110150000D03*
X133460000Y-112690000D03*
X136000000Y-110150000D03*
X136000000Y-112690000D03*
X138540000Y-110150000D03*
X138540000Y-112690000D03*
X141080000Y-110150000D03*
X141080000Y-112690000D03*
X143620000Y-110150000D03*
X143620000Y-112690000D03*
X146160000Y-110150000D03*
X146160000Y-112690000D03*
X148700000Y-110150000D03*
X148700000Y-112690000D03*
X151240000Y-110150000D03*
X151240000Y-112690000D03*
X153780000Y-110150000D03*
X153780000Y-112690000D03*
X156320000Y-110150000D03*
X156320000Y-112690000D03*
X158860000Y-110150000D03*
X158860000Y-112690000D03*
X161400000Y-110150000D03*
X161400000Y-112690000D03*
%TD*%
D12*
%TO.C,MH1*%
X108100000Y-65500000D03*
%TD*%
%TO.C,MH2*%
X166100000Y-65500000D03*
%TD*%
D10*
%TO.C,J1*%
X112970000Y-66770000D03*
D13*
X112970000Y-64230000D03*
X115510000Y-66770000D03*
X115510000Y-64230000D03*
X118050000Y-66770000D03*
X118050000Y-64230000D03*
X120590000Y-66770000D03*
X120590000Y-64230000D03*
X123130000Y-66770000D03*
X123130000Y-64230000D03*
X125670000Y-66770000D03*
X125670000Y-64230000D03*
X128210000Y-66770000D03*
X128210000Y-64230000D03*
X130750000Y-66770000D03*
X130750000Y-64230000D03*
X133290000Y-66770000D03*
X133290000Y-64230000D03*
X135830000Y-66770000D03*
X135830000Y-64230000D03*
X138370000Y-66770000D03*
X138370000Y-64230000D03*
X140910000Y-66770000D03*
X140910000Y-64230000D03*
X143450000Y-66770000D03*
X143450000Y-64230000D03*
X145990000Y-66770000D03*
X145990000Y-64230000D03*
X148530000Y-66770000D03*
X148530000Y-64230000D03*
X151070000Y-66770000D03*
X151070000Y-64230000D03*
X153610000Y-66770000D03*
X153610000Y-64230000D03*
X156150000Y-66770000D03*
X156150000Y-64230000D03*
X158690000Y-66770000D03*
X158690000Y-64230000D03*
X161230000Y-66770000D03*
X161230000Y-64230000D03*
%TD*%
D12*
%TO.C,MH4*%
X166100000Y-114500000D03*
%TD*%
%TO.C,MH3*%
X108100000Y-114500000D03*
%TD*%
M02*
