%TF.GenerationSoftware,KiCad,Pcbnew,9.0.4*%
%TF.CreationDate,2025-10-13T04:59:47+04:00*%
%TF.ProjectId,RPi_hat_breakout,5250695f-6861-4745-9f62-7265616b6f75,rev?*%
%TF.SameCoordinates,Original*%
%TF.FileFunction,Copper,L2,Bot*%
%TF.FilePolarity,Positive*%
%FSLAX46Y46*%
G04 Gerber Fmt 4.6, Leading zero omitted, Abs format (unit mm)*
G04 Created by KiCad (PCBNEW 9.0.4) date 2025-10-13 04:59:47*
%MOMM*%
%LPD*%
G01*
G04 APERTURE LIST*
%TA.AperFunction,ComponentPad*%
%ADD10R,1.700000X1.700000*%
%TD*%
%TA.AperFunction,ComponentPad*%
%ADD11C,1.700000*%
%TD*%
%TA.AperFunction,ComponentPad*%
%ADD12O,1.700000X1.700000*%
%TD*%
%TA.AperFunction,ViaPad*%
%ADD13C,0.600000*%
%TD*%
%TA.AperFunction,Conductor*%
%ADD14C,0.200000*%
%TD*%
G04 APERTURE END LIST*
D10*
%TO.P,J3,1,Pin_1*%
%TO.N,Net-(J1-Pin_1)*%
X112940000Y-73460000D03*
D11*
%TO.P,J3,2,Pin_2*%
%TO.N,Net-(J1-Pin_2)*%
X112940000Y-76000000D03*
%TO.P,J3,3,Pin_3*%
%TO.N,Net-(J1-Pin_3)*%
X115480000Y-73460000D03*
%TO.P,J3,4,Pin_4*%
%TO.N,Net-(J1-Pin_4)*%
X115480000Y-76000000D03*
%TO.P,J3,5,Pin_5*%
%TO.N,Net-(J1-Pin_5)*%
X118020000Y-73460000D03*
%TO.P,J3,6,Pin_6*%
%TO.N,Net-(J1-Pin_6)*%
X118020000Y-76000000D03*
%TO.P,J3,7,Pin_7*%
%TO.N,Net-(J1-Pin_7)*%
X120560000Y-73460000D03*
%TO.P,J3,8,Pin_8*%
%TO.N,Net-(J1-Pin_8)*%
X120560000Y-76000000D03*
%TO.P,J3,9,Pin_9*%
%TO.N,Net-(J1-Pin_9)*%
X123100000Y-73460000D03*
%TO.P,J3,10,Pin_10*%
%TO.N,Net-(J1-Pin_10)*%
X123100000Y-76000000D03*
%TO.P,J3,11,Pin_11*%
%TO.N,Net-(J1-Pin_11)*%
X125640000Y-73460000D03*
%TO.P,J3,12,Pin_12*%
%TO.N,Net-(J1-Pin_12)*%
X125640000Y-76000000D03*
%TO.P,J3,13,Pin_13*%
%TO.N,Net-(J1-Pin_13)*%
X128180000Y-73460000D03*
%TO.P,J3,14,Pin_14*%
%TO.N,Net-(J1-Pin_14)*%
X128180000Y-76000000D03*
%TO.P,J3,15,Pin_15*%
%TO.N,Net-(J1-Pin_15)*%
X130720000Y-73460000D03*
%TO.P,J3,16,Pin_16*%
%TO.N,Net-(J1-Pin_16)*%
X130720000Y-76000000D03*
%TO.P,J3,17,Pin_17*%
%TO.N,Net-(J1-Pin_17)*%
X133260000Y-73460000D03*
%TO.P,J3,18,Pin_18*%
%TO.N,Net-(J1-Pin_18)*%
X133260000Y-76000000D03*
%TO.P,J3,19,Pin_19*%
%TO.N,Net-(J1-Pin_19)*%
X135800000Y-73460000D03*
%TO.P,J3,20,Pin_20*%
%TO.N,Net-(J1-Pin_20)*%
X135800000Y-76000000D03*
%TO.P,J3,21,Pin_21*%
%TO.N,Net-(J1-Pin_21)*%
X138340000Y-73460000D03*
%TO.P,J3,22,Pin_22*%
%TO.N,Net-(J1-Pin_22)*%
X138340000Y-76000000D03*
%TO.P,J3,23,Pin_23*%
%TO.N,Net-(J1-Pin_23)*%
X140880000Y-73460000D03*
%TO.P,J3,24,Pin_24*%
%TO.N,Net-(J1-Pin_24)*%
X140880000Y-76000000D03*
%TO.P,J3,25,Pin_25*%
%TO.N,Net-(J1-Pin_25)*%
X143420000Y-73460000D03*
%TO.P,J3,26,Pin_26*%
%TO.N,Net-(J1-Pin_26)*%
X143420000Y-76000000D03*
%TO.P,J3,27,Pin_27*%
%TO.N,Net-(J1-Pin_27)*%
X145960000Y-73460000D03*
%TO.P,J3,28,Pin_28*%
%TO.N,Net-(J1-Pin_28)*%
X145960000Y-76000000D03*
%TO.P,J3,29,Pin_29*%
%TO.N,Net-(J1-Pin_29)*%
X148500000Y-73460000D03*
%TO.P,J3,30,Pin_30*%
%TO.N,Net-(J1-Pin_30)*%
X148500000Y-76000000D03*
%TO.P,J3,31,Pin_31*%
%TO.N,Net-(J1-Pin_31)*%
X151040000Y-73460000D03*
%TO.P,J3,32,Pin_32*%
%TO.N,Net-(J1-Pin_32)*%
X151040000Y-76000000D03*
%TO.P,J3,33,Pin_33*%
%TO.N,Net-(J1-Pin_33)*%
X153580000Y-73460000D03*
%TO.P,J3,34,Pin_34*%
%TO.N,Net-(J1-Pin_34)*%
X153580000Y-76000000D03*
%TO.P,J3,35,Pin_35*%
%TO.N,Net-(J1-Pin_35)*%
X156120000Y-73460000D03*
%TO.P,J3,36,Pin_36*%
%TO.N,Net-(J1-Pin_36)*%
X156120000Y-76000000D03*
%TO.P,J3,37,Pin_37*%
%TO.N,Net-(J1-Pin_37)*%
X158660000Y-73460000D03*
%TO.P,J3,38,Pin_38*%
%TO.N,Net-(J1-Pin_38)*%
X158660000Y-76000000D03*
%TO.P,J3,39,Pin_39*%
%TO.N,Net-(J1-Pin_39)*%
X161200000Y-73460000D03*
%TO.P,J3,40,Pin_40*%
%TO.N,Net-(J1-Pin_40)*%
X161200000Y-76000000D03*
%TD*%
D10*
%TO.P,J2,1,Pin_1*%
%TO.N,Net-(J1-Pin_1)*%
X113140000Y-110150000D03*
D11*
%TO.P,J2,2,Pin_2*%
%TO.N,Net-(J1-Pin_2)*%
X113140000Y-112690000D03*
%TO.P,J2,3,Pin_3*%
%TO.N,Net-(J1-Pin_3)*%
X115680000Y-110150000D03*
%TO.P,J2,4,Pin_4*%
%TO.N,Net-(J1-Pin_4)*%
X115680000Y-112690000D03*
%TO.P,J2,5,Pin_5*%
%TO.N,Net-(J1-Pin_5)*%
X118220000Y-110150000D03*
%TO.P,J2,6,Pin_6*%
%TO.N,Net-(J1-Pin_6)*%
X118220000Y-112690000D03*
%TO.P,J2,7,Pin_7*%
%TO.N,Net-(J1-Pin_7)*%
X120760000Y-110150000D03*
%TO.P,J2,8,Pin_8*%
%TO.N,Net-(J1-Pin_8)*%
X120760000Y-112690000D03*
%TO.P,J2,9,Pin_9*%
%TO.N,Net-(J1-Pin_9)*%
X123300000Y-110150000D03*
%TO.P,J2,10,Pin_10*%
%TO.N,Net-(J1-Pin_10)*%
X123300000Y-112690000D03*
%TO.P,J2,11,Pin_11*%
%TO.N,Net-(J1-Pin_11)*%
X125840000Y-110150000D03*
%TO.P,J2,12,Pin_12*%
%TO.N,Net-(J1-Pin_12)*%
X125840000Y-112690000D03*
%TO.P,J2,13,Pin_13*%
%TO.N,Net-(J1-Pin_13)*%
X128380000Y-110150000D03*
%TO.P,J2,14,Pin_14*%
%TO.N,Net-(J1-Pin_14)*%
X128380000Y-112690000D03*
%TO.P,J2,15,Pin_15*%
%TO.N,Net-(J1-Pin_15)*%
X130920000Y-110150000D03*
%TO.P,J2,16,Pin_16*%
%TO.N,Net-(J1-Pin_16)*%
X130920000Y-112690000D03*
%TO.P,J2,17,Pin_17*%
%TO.N,Net-(J1-Pin_17)*%
X133460000Y-110150000D03*
%TO.P,J2,18,Pin_18*%
%TO.N,Net-(J1-Pin_18)*%
X133460000Y-112690000D03*
%TO.P,J2,19,Pin_19*%
%TO.N,Net-(J1-Pin_19)*%
X136000000Y-110150000D03*
%TO.P,J2,20,Pin_20*%
%TO.N,Net-(J1-Pin_20)*%
X136000000Y-112690000D03*
%TO.P,J2,21,Pin_21*%
%TO.N,Net-(J1-Pin_21)*%
X138540000Y-110150000D03*
%TO.P,J2,22,Pin_22*%
%TO.N,Net-(J1-Pin_22)*%
X138540000Y-112690000D03*
%TO.P,J2,23,Pin_23*%
%TO.N,Net-(J1-Pin_23)*%
X141080000Y-110150000D03*
%TO.P,J2,24,Pin_24*%
%TO.N,Net-(J1-Pin_24)*%
X141080000Y-112690000D03*
%TO.P,J2,25,Pin_25*%
%TO.N,Net-(J1-Pin_25)*%
X143620000Y-110150000D03*
%TO.P,J2,26,Pin_26*%
%TO.N,Net-(J1-Pin_26)*%
X143620000Y-112690000D03*
%TO.P,J2,27,Pin_27*%
%TO.N,Net-(J1-Pin_27)*%
X146160000Y-110150000D03*
%TO.P,J2,28,Pin_28*%
%TO.N,Net-(J1-Pin_28)*%
X146160000Y-112690000D03*
%TO.P,J2,29,Pin_29*%
%TO.N,Net-(J1-Pin_29)*%
X148700000Y-110150000D03*
%TO.P,J2,30,Pin_30*%
%TO.N,Net-(J1-Pin_30)*%
X148700000Y-112690000D03*
%TO.P,J2,31,Pin_31*%
%TO.N,Net-(J1-Pin_31)*%
X151240000Y-110150000D03*
%TO.P,J2,32,Pin_32*%
%TO.N,Net-(J1-Pin_32)*%
X151240000Y-112690000D03*
%TO.P,J2,33,Pin_33*%
%TO.N,Net-(J1-Pin_33)*%
X153780000Y-110150000D03*
%TO.P,J2,34,Pin_34*%
%TO.N,Net-(J1-Pin_34)*%
X153780000Y-112690000D03*
%TO.P,J2,35,Pin_35*%
%TO.N,Net-(J1-Pin_35)*%
X156320000Y-110150000D03*
%TO.P,J2,36,Pin_36*%
%TO.N,Net-(J1-Pin_36)*%
X156320000Y-112690000D03*
%TO.P,J2,37,Pin_37*%
%TO.N,Net-(J1-Pin_37)*%
X158860000Y-110150000D03*
%TO.P,J2,38,Pin_38*%
%TO.N,Net-(J1-Pin_38)*%
X158860000Y-112690000D03*
%TO.P,J2,39,Pin_39*%
%TO.N,Net-(J1-Pin_39)*%
X161400000Y-110150000D03*
%TO.P,J2,40,Pin_40*%
%TO.N,Net-(J1-Pin_40)*%
X161400000Y-112690000D03*
%TD*%
D10*
%TO.P,J1,1,Pin_1*%
%TO.N,Net-(J1-Pin_1)*%
X112970000Y-66770000D03*
D12*
%TO.P,J1,2,Pin_2*%
%TO.N,Net-(J1-Pin_2)*%
X112970000Y-64230000D03*
%TO.P,J1,3,Pin_3*%
%TO.N,Net-(J1-Pin_3)*%
X115510000Y-66770000D03*
%TO.P,J1,4,Pin_4*%
%TO.N,Net-(J1-Pin_4)*%
X115510000Y-64230000D03*
%TO.P,J1,5,Pin_5*%
%TO.N,Net-(J1-Pin_5)*%
X118050000Y-66770000D03*
%TO.P,J1,6,Pin_6*%
%TO.N,Net-(J1-Pin_6)*%
X118050000Y-64230000D03*
%TO.P,J1,7,Pin_7*%
%TO.N,Net-(J1-Pin_7)*%
X120590000Y-66770000D03*
%TO.P,J1,8,Pin_8*%
%TO.N,Net-(J1-Pin_8)*%
X120590000Y-64230000D03*
%TO.P,J1,9,Pin_9*%
%TO.N,Net-(J1-Pin_9)*%
X123130000Y-66770000D03*
%TO.P,J1,10,Pin_10*%
%TO.N,Net-(J1-Pin_10)*%
X123130000Y-64230000D03*
%TO.P,J1,11,Pin_11*%
%TO.N,Net-(J1-Pin_11)*%
X125670000Y-66770000D03*
%TO.P,J1,12,Pin_12*%
%TO.N,Net-(J1-Pin_12)*%
X125670000Y-64230000D03*
%TO.P,J1,13,Pin_13*%
%TO.N,Net-(J1-Pin_13)*%
X128210000Y-66770000D03*
%TO.P,J1,14,Pin_14*%
%TO.N,Net-(J1-Pin_14)*%
X128210000Y-64230000D03*
%TO.P,J1,15,Pin_15*%
%TO.N,Net-(J1-Pin_15)*%
X130750000Y-66770000D03*
%TO.P,J1,16,Pin_16*%
%TO.N,Net-(J1-Pin_16)*%
X130750000Y-64230000D03*
%TO.P,J1,17,Pin_17*%
%TO.N,Net-(J1-Pin_17)*%
X133290000Y-66770000D03*
%TO.P,J1,18,Pin_18*%
%TO.N,Net-(J1-Pin_18)*%
X133290000Y-64230000D03*
%TO.P,J1,19,Pin_19*%
%TO.N,Net-(J1-Pin_19)*%
X135830000Y-66770000D03*
%TO.P,J1,20,Pin_20*%
%TO.N,Net-(J1-Pin_20)*%
X135830000Y-64230000D03*
%TO.P,J1,21,Pin_21*%
%TO.N,Net-(J1-Pin_21)*%
X138370000Y-66770000D03*
%TO.P,J1,22,Pin_22*%
%TO.N,Net-(J1-Pin_22)*%
X138370000Y-64230000D03*
%TO.P,J1,23,Pin_23*%
%TO.N,Net-(J1-Pin_23)*%
X140910000Y-66770000D03*
%TO.P,J1,24,Pin_24*%
%TO.N,Net-(J1-Pin_24)*%
X140910000Y-64230000D03*
%TO.P,J1,25,Pin_25*%
%TO.N,Net-(J1-Pin_25)*%
X143450000Y-66770000D03*
%TO.P,J1,26,Pin_26*%
%TO.N,Net-(J1-Pin_26)*%
X143450000Y-64230000D03*
%TO.P,J1,27,Pin_27*%
%TO.N,Net-(J1-Pin_27)*%
X145990000Y-66770000D03*
%TO.P,J1,28,Pin_28*%
%TO.N,Net-(J1-Pin_28)*%
X145990000Y-64230000D03*
%TO.P,J1,29,Pin_29*%
%TO.N,Net-(J1-Pin_29)*%
X148530000Y-66770000D03*
%TO.P,J1,30,Pin_30*%
%TO.N,Net-(J1-Pin_30)*%
X148530000Y-64230000D03*
%TO.P,J1,31,Pin_31*%
%TO.N,Net-(J1-Pin_31)*%
X151070000Y-66770000D03*
%TO.P,J1,32,Pin_32*%
%TO.N,Net-(J1-Pin_32)*%
X151070000Y-64230000D03*
%TO.P,J1,33,Pin_33*%
%TO.N,Net-(J1-Pin_33)*%
X153610000Y-66770000D03*
%TO.P,J1,34,Pin_34*%
%TO.N,Net-(J1-Pin_34)*%
X153610000Y-64230000D03*
%TO.P,J1,35,Pin_35*%
%TO.N,Net-(J1-Pin_35)*%
X156150000Y-66770000D03*
%TO.P,J1,36,Pin_36*%
%TO.N,Net-(J1-Pin_36)*%
X156150000Y-64230000D03*
%TO.P,J1,37,Pin_37*%
%TO.N,Net-(J1-Pin_37)*%
X158690000Y-66770000D03*
%TO.P,J1,38,Pin_38*%
%TO.N,Net-(J1-Pin_38)*%
X158690000Y-64230000D03*
%TO.P,J1,39,Pin_39*%
%TO.N,Net-(J1-Pin_39)*%
X161230000Y-66770000D03*
%TO.P,J1,40,Pin_40*%
%TO.N,Net-(J1-Pin_40)*%
X161230000Y-64230000D03*
%TD*%
D13*
%TO.N,Net-(J1-Pin_2)*%
X110800000Y-78200000D03*
X114200000Y-79000000D03*
%TD*%
D14*
%TO.N,Net-(J1-Pin_2)*%
X111600000Y-79000000D02*
X114200000Y-79000000D01*
X114200000Y-79000000D02*
X114291000Y-78909000D01*
X110800000Y-78200000D02*
X111600000Y-79000000D01*
%TD*%
M02*
